<?xml version="1.0" encoding="UTF-8"?>
<svg height="128px" version="1.1" xmlns="http://www.w3.org/2000/svg" xmlns:xlink="http://www.w3.org/1999/xlink" width="248px" viewBox="0 0 248 128">
    <rect xmlns="http://www.w3.org/2000/svg" id="Pill" x="0" y="0" width="248" height="128" rx="64" fill="#273440"/>
    <g id="Branch" stroke="none" stroke-width="1" fill-rule="evenodd" fill="none" transform="translate(100,19),scale(0.75,0.75)">
        <path fill="#fff" id="noun_Walk_709032_000000" d="M 43.1659 25.8995 C 43.1659 25.8995 46.1489 31.94 52.1148 44.0208 L 62.2213 51.8382 C 64.3895 54.2061 64.6684 57.5235 62.5423 59.5385 C 60.7155 61.2696 57.2184 60.0981 55.4759 58.2747 L 46.697 51.4992 C 44.9668 50.4448 40.9841 42.0554 40.9841 42.0554 L 38.2936 59.8045 C 37.8433 61.9905 38.9424 63.3908 38.9424 63.3908 L 52.7446 85.8011 L 56.5927 111.5083 C 57.4972 115.7244 55.6501 118.7496 52.444 119.589 C 49.0666 120.4752 45.9081 118.4189 45.0784 115.0477 L 41.6628 92.312 L 32.4718 76.8053 L 26.0025 95.136 L 13.2001 114.8905 C 11.1162 118.4809 8.6787 120.7495 5.2305 119.7723 C 1.7823 118.802 -0.6062 114.9291 0.9839 111.4697 L 14.0611 89.5031 L 19.7604 68.4421 C 20.0978 66.507 18.9062 63.3908 18.9062 63.3908 C 17.784 59.0548 18.5471 56.4788 18.5471 56.4788 L 21.9327 36.7698 L 13.5156 44.1752 L 10.0579 59.1333 C 9.5166 62.2634 7.8435 64.5954 4.9789 64.6202 C 2.1115 64.645 -0.239 62.069 0.0195 59.3525 L 4.4701 40.7723 C 5.0197 37.1351 7.0559 35.9249 7.0559 35.9249 L 25.4775 22.5449 C 32.6187 19.7645 38.5148 20.8827 43.1659 25.8995 Z M 40.1429 0 C 45.429 0 49.7143 4.3265 49.7143 9.6635 C 49.7143 15.0004 45.429 19.3269 40.1429 19.3269 C 34.8567 19.3269 30.5714 15.0004 30.5714 9.6635 C 30.5714 4.3265 34.8567 0 40.1429 0 Z"/>
    </g>
</svg>